# 3ds Max Wavefront OBJ Exporter v0.97b - (c)2007 guruware
# File Created: 11.10.2017 19:48:32

mtllib bench.mtl

#
# object Box001
#

v  -11.3858 29.9886 65.4212
v  -14.7847 29.9886 57.2688
v  -4.9282 29.9886 57.2688
v  -4.9282 29.9886 65.4212
v  4.9282 29.9886 57.2688
v  4.9282 29.9886 65.4212
v  14.7847 29.9886 57.2688
v  11.3858 29.9886 65.4212
v  -14.7847 29.9886 -28.1155
v  -4.9282 29.9886 -28.1155
v  4.9282 29.9886 -28.1155
v  14.7847 29.9886 -28.1155
v  -11.1583 29.9886 -39.1552
v  -4.9282 29.9886 -39.1552
v  4.9282 29.9886 -39.1552
v  11.1583 29.9886 -39.1552
v  -11.3858 34.4286 65.4212
v  -4.9282 34.4286 65.4212
v  -5.2713 34.4286 57.2688
v  -15.1277 34.4286 57.2688
v  4.9282 34.4286 65.4212
v  4.9282 34.4286 57.2688
v  11.3858 34.4286 65.4212
v  14.7847 34.4286 57.2688
v  -5.2713 34.4286 -28.1155
v  -15.1277 34.4286 -28.1155
v  4.9282 34.4286 -28.1155
v  14.7847 34.4286 -28.1155
v  -4.9282 34.4286 -39.1552
v  -11.1583 34.4286 -39.1552
v  4.9282 34.4286 -39.1552
v  11.1583 34.4286 -39.1552
# 32 vertices

vn -0.4433 -0.6010 0.6651
vn -0.7066 -0.6931 0.1428
vn 0.0000 -1.0000 -0.0000
vn 0.0000 -0.7071 0.7071
vn 0.7319 -0.6655 0.1464
vn 0.4432 -0.6011 0.6651
vn -0.7042 -0.7008 -0.1136
vn 0.7302 -0.6732 -0.1169
vn -0.4710 -0.5959 -0.6504
vn 0.0000 -0.7071 -0.7071
vn 0.4710 -0.5959 -0.6504
vn -0.4304 0.6035 0.6713
vn 0.0000 0.7071 0.7071
vn 0.0000 1.0000 -0.0000
vn -0.7560 0.6339 0.1635
vn 0.4432 0.6011 0.6651
vn 0.7319 0.6655 0.1464
vn -0.7554 0.6421 -0.1306
vn 0.7302 0.6732 -0.1169
vn 0.0000 0.7071 -0.7071
vn -0.4611 0.5977 -0.6558
vn 0.4710 0.5959 -0.6504
# 22 vertex normals

vt 1.0000 0.0000 0.0000
vt 1.0000 0.3333 0.0000
vt 0.6667 0.3333 0.0000
vt 0.6667 0.0000 0.0000
vt 0.3333 0.3333 0.0000
vt 0.3333 0.0000 0.0000
vt -0.0000 0.3333 0.0000
vt -0.0000 0.0000 0.0000
vt 1.0000 0.6667 0.0000
vt 0.6667 0.6667 0.0000
vt 0.3333 0.6667 0.0000
vt -0.0000 0.6667 0.0000
vt 1.0000 1.0000 0.0000
vt 0.6667 1.0000 0.0000
vt 0.3333 1.0000 0.0000
vt -0.0000 1.0000 0.0000
vt 0.0000 0.0000 0.0000
vt 0.0000 0.3333 0.0000
vt 0.0000 0.6667 0.0000
vt 0.0000 1.0000 0.0000
# 20 texture coords

o Box001
g Box001
usemtl Material__30
s 2
f 1/1/1 2/2/2 3/3/3 4/4/4 
f 4/4/4 3/3/3 5/5/3 6/6/4 
f 6/6/4 5/5/3 7/7/5 8/8/6 
f 2/2/2 9/9/7 10/10/3 3/3/3 
f 3/3/3 10/10/3 11/11/3 5/5/3 
f 5/5/3 11/11/3 12/12/8 7/7/5 
f 9/9/7 13/13/9 14/14/10 10/10/3 
f 10/10/3 14/14/10 15/15/10 11/11/3 
f 11/11/3 15/15/10 16/16/11 12/12/8 
s 4
f 17/17/12 18/6/13 19/5/14 20/18/15 
f 18/6/13 21/4/13 22/3/14 19/5/14 
f 21/4/13 23/1/16 24/2/17 22/3/14 
f 20/18/15 19/5/14 25/11/14 26/19/18 
f 19/5/14 22/3/14 27/10/14 25/11/14 
f 22/3/14 24/2/17 28/9/19 27/10/14 
f 26/19/18 25/11/14 29/15/20 30/20/21 
f 25/11/14 27/10/14 31/14/20 29/15/20 
f 27/10/14 28/9/19 32/13/22 31/14/20 
s 8
f 1/17/1 4/6/4 18/15/13 17/20/12 
f 4/6/4 6/4/4 21/14/13 18/15/13 
f 6/4/4 8/1/6 23/13/16 21/14/13 
s 16
f 8/17/6 7/6/5 24/15/17 23/20/16 
f 7/6/5 12/4/8 28/14/19 24/15/17 
f 12/4/8 16/1/11 32/13/22 28/14/19 
s 32
f 16/17/11 15/6/10 31/15/20 32/20/22 
f 15/6/10 14/4/10 29/14/20 31/15/20 
f 14/4/10 13/1/9 30/13/21 29/14/20 
s 64
f 13/17/9 9/6/7 26/15/18 30/20/21 
f 9/6/7 2/4/2 20/14/15 26/15/18 
f 2/4/2 1/1/1 17/13/12 20/14/15 
# 30 polygons

#
# object Box002
#

v  -4.8931 0.0000 61.4072
v  -4.8931 0.0000 49.2163
v  4.8551 0.0000 49.2163
v  4.8551 0.0000 61.4072
v  6.7146 5.5799 58.0737
v  -6.7535 5.5799 58.0737
v  -6.7535 5.5799 52.5498
v  6.7146 5.5799 52.5498
v  4.8551 30.0077 58.0737
v  -4.8931 30.0077 58.0737
v  4.8551 30.0077 52.5498
v  -4.8931 30.0077 52.5498
v  14.6820 0.0000 49.2163
v  14.6820 0.0000 61.4072
v  12.8225 5.5799 58.0737
v  12.8225 5.5799 52.5498
v  -14.7249 0.0000 61.4072
v  -14.7249 0.0000 49.2163
v  -12.8644 5.5799 52.5498
v  -12.8644 5.5799 58.0737
# 20 vertices

vn 0.0000 -0.4935 0.8697
vn 0.0000 -0.4935 -0.8697
vn 0.2817 0.5937 0.7538
vn -0.2817 0.5937 0.7538
vn -0.2816 0.5937 -0.7538
vn 0.2817 0.5937 -0.7538
vn 0.6882 0.0524 0.7236
vn -0.6881 0.0524 0.7237
vn 0.6882 0.0524 -0.7236
vn -0.6883 0.0524 -0.7235
vn 0.6253 -0.3589 -0.6929
vn 0.6253 -0.3589 0.6929
vn 0.4866 0.7815 0.3903
vn 0.4866 0.7815 -0.3903
vn -0.6254 -0.3589 0.6929
vn -0.6254 -0.3589 -0.6929
vn -0.4866 0.7816 -0.3903
vn -0.4866 0.7816 0.3903
# 18 vertex normals

vt 1.0000 0.0000 0.0000
vt 1.0000 1.0000 0.0000
vt 0.0000 1.0000 0.0000
vt 0.0000 0.0000 0.0000
# 4 texture coords

o Box002
g Box002
usemtl Material__2
s 2
f 33/21/23 34/22/24 35/23/24 36/24/23 
s 8
f 33/24/23 36/21/23 37/22/25 38/23/26 
s 32
f 35/24/24 34/21/24 39/22/27 40/23/28 
s off
f 38/23/26 37/22/25 41/22/29 42/23/30 
f 37/23/25 40/22/28 43/22/31 41/23/29 
f 40/23/28 39/22/27 44/22/32 43/23/31 
f 39/23/27 38/22/26 42/22/30 44/23/32 
f 36/24/23 35/23/24 45/23/33 46/24/34 
f 40/22/28 37/23/25 47/23/35 48/22/36 
f 37/22/25 36/21/23 46/21/34 47/22/35 
f 35/24/24 40/23/28 48/23/36 45/24/33 
f 34/22/24 33/21/23 49/21/37 50/22/38 
f 38/22/26 39/23/27 51/23/39 52/22/40 
f 33/24/23 38/23/26 52/23/40 49/24/37 
f 39/22/27 34/21/24 50/21/38 51/22/39 
f 52/22/40 51/23/39 50/22/38 49/21/37 
f 48/22/36 47/23/35 46/24/34 45/23/33 
# 17 polygons

#
# object Box003
#

v  -4.8931 0.0000 -22.6996
v  -4.8931 0.0000 -34.8904
v  4.8551 0.0000 -34.8904
v  4.8551 0.0000 -22.6996
v  6.7146 5.5799 -26.0330
v  -6.7535 5.5799 -26.0330
v  -6.7535 5.5799 -31.5570
v  6.7146 5.5799 -31.5570
v  4.8551 30.0077 -26.0330
v  -4.8931 30.0077 -26.0330
v  4.8551 30.0077 -31.5570
v  -4.8931 30.0077 -31.5570
v  14.6820 0.0000 -34.8904
v  14.6820 0.0000 -22.6996
v  12.8225 5.5799 -26.0330
v  12.8225 5.5799 -31.5570
v  -14.7249 0.0000 -22.6996
v  -14.7249 0.0000 -34.8904
v  -12.8644 5.5799 -31.5570
v  -12.8644 5.5799 -26.0330
# 20 vertices

vn 0.0000 -0.4935 0.8697
vn 0.0000 -0.4935 -0.8697
vn 0.2817 0.5937 0.7538
vn -0.2817 0.5937 0.7538
vn -0.2816 0.5937 -0.7538
vn 0.2817 0.5937 -0.7538
vn 0.6882 0.0524 0.7236
vn -0.6881 0.0524 0.7237
vn 0.6882 0.0524 -0.7236
vn -0.6883 0.0524 -0.7235
vn 0.6253 -0.3589 -0.6929
vn 0.6253 -0.3589 0.6929
vn 0.4866 0.7815 0.3903
vn 0.4866 0.7815 -0.3903
vn -0.6254 -0.3589 0.6929
vn -0.6254 -0.3589 -0.6929
vn -0.4866 0.7816 -0.3903
vn -0.4866 0.7816 0.3903
# 18 vertex normals

vt 1.0000 0.0000 0.0000
vt 1.0000 1.0000 0.0000
vt 0.0000 1.0000 0.0000
vt 0.0000 0.0000 0.0000
# 4 texture coords

o Box003
g Box003
usemtl Material__2
s 2
f 53/25/41 54/26/42 55/27/42 56/28/41 
s 8
f 53/28/41 56/25/41 57/26/43 58/27/44 
s 32
f 55/28/42 54/25/42 59/26/45 60/27/46 
s off
f 58/27/44 57/26/43 61/26/47 62/27/48 
f 57/27/43 60/26/46 63/26/49 61/27/47 
f 60/27/46 59/26/45 64/26/50 63/27/49 
f 59/27/45 58/26/44 62/26/48 64/27/50 
f 56/28/41 55/27/42 65/27/51 66/28/52 
f 60/26/46 57/27/43 67/27/53 68/26/54 
f 57/26/43 56/25/41 66/25/52 67/26/53 
f 55/28/42 60/27/46 68/27/54 65/28/51 
f 54/26/42 53/25/41 69/25/55 70/26/56 
f 58/26/44 59/27/45 71/27/57 72/26/58 
f 53/28/41 58/27/44 72/27/58 69/28/55 
f 59/26/45 54/25/42 70/25/56 71/26/57 
f 72/26/58 71/27/57 70/26/56 69/25/55 
f 68/26/54 67/27/53 66/28/52 65/27/51 
# 17 polygons

