# 3ds Max Wavefront OBJ Exporter v0.97b - (c)2007 guruware
# File Created: 12.10.2017 13:34:47

mtllib desk.mtl

#
# object Box001
#

v  -46.7508 30.8995 20.6336
v  -46.7508 30.8995 -30.0569
v  -4.0440 30.8995 -30.0569
v  -4.0440 30.8995 20.6336
v  69.8620 30.8995 -30.0569
v  69.8620 30.8995 20.6336
v  -46.7508 35.4069 20.6336
v  -4.0440 35.4069 20.6336
v  -4.0440 35.4069 -30.0569
v  -46.7508 35.4069 -30.0569
v  69.8620 35.4069 20.6336
v  69.8620 35.4069 -30.0569
v  -46.7508 30.8995 -76.8463
v  -4.0440 30.8995 -76.8463
v  -4.0440 35.4069 -76.8463
v  -46.7508 35.4069 -76.8463
# 16 vertices

vn -0.5774 -0.5774 0.5774
vn -0.7071 -0.7071 -0.0000
vn 0.3015 -0.9045 -0.3015
vn 0.0000 -0.7071 0.7071
vn 0.5774 -0.5774 -0.5774
vn 0.5774 -0.5774 0.5774
vn -0.5774 0.5774 0.5774
vn 0.0000 0.7071 0.7071
vn 0.3015 0.9045 -0.3015
vn -0.7071 0.7071 -0.0000
vn 0.5774 0.5774 0.5774
vn 0.5774 0.5774 -0.5774
vn -0.5774 -0.5774 -0.5774
vn -0.5774 0.5774 -0.5774
# 14 vertex normals

vt 1.0000 0.0000 0.0000
vt 1.0000 1.0000 0.0000
vt 0.5000 1.0000 0.0000
vt 0.5000 0.0000 0.0000
vt 0.0000 1.0000 0.0000
vt 0.0000 0.0000 0.0000
# 6 texture coords

o Box001
g Box001
usemtl Material__4
s 2
f 1/1/1 2/2/2 3/3/3 4/4/4 
f 4/4/4 3/3/3 5/5/5 6/6/6 
s 4
f 7/6/7 8/4/8 9/3/9 10/5/10 
f 8/4/8 11/1/11 12/2/12 9/3/9 
s 8
f 1/6/1 4/4/4 8/3/8 7/5/7 
f 4/4/4 6/1/6 11/2/11 8/3/8 
s 16
f 6/6/6 5/1/5 12/2/12 11/5/11 
s 32
f 5/6/5 3/4/3 9/3/9 12/5/12 
s 64
f 2/6/2 1/1/1 7/2/7 10/5/10 
s off
f 3/3/3 2/2/2 13/2/13 14/3/5 
f 10/5/10 9/3/9 15/3/12 16/5/14 
f 9/3/9 3/4/3 14/4/5 15/3/12 
f 2/6/2 10/5/10 16/5/14 13/6/13 
f 16/5/14 15/3/12 14/3/5 13/2/13 
# 14 polygons

#
# object Box002
#

v  62.3883 0.0000 18.6840
v  62.3883 -0.0000 14.2796
v  67.9123 -0.0000 14.2796
v  67.9123 0.0000 18.6840
v  62.3883 0.0000 -27.1324
v  67.9123 0.0000 -27.1324
v  67.9123 30.9373 18.6840
v  62.3883 30.9373 18.6840
v  67.9123 30.9373 14.2796
v  67.9123 30.9373 -27.1324
v  62.3883 30.9373 -27.1324
v  62.3883 30.9373 14.2796
v  -38.8854 0.0000 18.6840
v  -38.8854 -0.0000 14.2796
v  -38.8854 30.9373 18.6840
v  -38.8854 30.9373 14.2796
v  -44.2713 0.0000 18.6840
v  -44.2713 -0.0000 14.2796
v  -44.2713 30.9373 18.6840
v  -44.2713 30.9373 14.2796
v  -38.8854 -0.0000 -72.7886
v  -38.8854 30.9373 -72.7886
v  -44.2713 -0.0000 -72.7886
v  -44.2713 30.9373 -72.7886
# 24 vertices

vn 0.0000 -0.7071 0.7071
vn -0.3015 -0.9045 -0.3015
vn 0.7071 -0.7071 0.0000
vn 0.5774 -0.5774 0.5774
vn -0.5774 -0.5774 -0.5774
vn 0.5774 -0.5774 -0.5774
vn 0.7071 -0.0000 0.7071
vn 0.0000 0.0000 1.0000
vn 1.0000 0.0000 -0.0000
vn 0.7071 -0.0000 -0.7071
vn -0.7071 -0.0000 -0.7071
vn 0.3015 -0.9045 -0.3015
vn 0.7071 0.0000 -0.7071
vn -0.5774 -0.5774 0.5774
vn -0.7071 -0.7071 0.0000
vn -0.7071 0.0000 0.7071
vn -1.0000 0.0000 -0.0000
vn -0.7071 0.0000 -0.7071
# 18 vertex normals

vt 1.0000 0.0000 0.0000
vt 1.0000 0.5000 0.0000
vt 0.0000 0.5000 0.0000
vt 0.0000 0.0000 0.0000
vt 1.0000 1.0000 0.0000
vt 0.0000 1.0000 0.0000
vt 0.5000 0.0000 0.0000
vt 0.5000 1.0000 0.0000
# 8 texture coords

o Box002
g Box002
usemtl Material__4
s 2
f 17/7/15 18/8/16 19/9/17 20/10/18 
f 18/8/16 21/11/19 22/12/20 19/9/17 
s 8
f 17/10/15 20/7/18 23/11/21 24/12/22 
s 16
f 20/10/18 19/13/17 25/14/23 23/12/21 
f 19/13/17 22/7/20 26/11/24 25/14/23 
s 32
f 22/10/20 21/7/19 27/11/25 26/12/24 
s 64
f 21/10/19 18/13/16 28/14/25 27/12/25 
s off
f 18/8/16 17/7/15 29/7/15 30/8/26 
f 17/10/15 24/12/22 31/12/22 29/10/15 
f 28/14/25 18/13/16 30/13/26 32/14/27 
f 30/8/26 29/7/15 33/7/28 34/8/29 
f 29/10/15 31/12/22 35/12/30 33/10/28 
f 35/10/30 36/9/31 34/8/29 33/7/28 
f 32/14/27 30/13/26 37/13/20 38/14/27 
f 30/8/26 34/8/29 39/8/19 37/8/20 
f 34/8/29 36/9/31 40/9/32 39/8/19 
f 40/9/32 38/14/27 37/13/20 39/8/19 
# 17 polygons

