# 3ds Max Wavefront OBJ Exporter v0.97b - (c)2007 guruware
# File Created: 30.10.2017 18:49:32

mtllib person_G.mtl

#
# object Box001
#

v  -19.9888 0.0000 9.7890
v  -19.9888 0.0000 -9.7890
v  19.9983 0.0000 -9.7890
v  19.9983 0.0000 9.7890
v  19.9983 90.2149 9.7890
v  -19.9888 90.2149 9.7890
v  19.9983 90.2149 -9.7890
v  -19.9888 90.2149 -9.7890
v  23.0016 90.2149 -9.7890
v  23.0016 90.2149 9.7890
v  -22.9694 90.2149 9.7890
v  -22.9694 90.2149 -9.7890
v  23.0016 42.3523 -9.7890
v  23.0016 42.3523 9.7890
v  -22.9694 42.3523 9.7890
v  -22.9694 42.3523 -9.7890
v  34.1061 42.3523 9.7890
v  34.1061 90.2149 9.7890
v  34.1061 90.2149 -9.7890
v  34.1061 42.3523 -9.7890
v  -33.9625 90.2149 9.7890
v  -33.9625 42.3523 9.7890
v  -33.9625 42.3523 -9.7890
v  -33.9625 90.2149 -9.7890
v  19.9983 102.8053 9.7890
v  -19.9888 102.8053 9.7890
v  -19.9888 102.8053 -9.7890
v  19.9983 102.8053 -9.7890
v  23.0016 102.8053 9.7890
v  23.0016 102.8053 -9.7890
v  -22.9694 102.8053 9.7890
v  -22.9694 102.8053 -9.7890
v  34.1061 102.8053 9.7890
v  34.1061 102.8053 -9.7890
v  -33.9625 102.8053 9.7890
v  -33.9625 102.8053 -9.7890
v  10.1500 102.8053 9.7890
v  -10.1404 102.8053 9.7890
v  -10.1404 102.8053 -9.7890
v  10.1500 102.8053 -9.7890
v  10.1500 122.2907 9.7890
v  -10.1404 122.2907 9.7890
v  -10.1404 122.2907 -9.7890
v  10.1500 122.2907 -9.7890
# 44 vertices

vn -0.5774 -0.5774 0.5774
vn -0.5774 -0.5774 -0.5774
vn 0.5774 -0.5774 -0.5774
vn 0.5774 -0.5774 0.5774
vn 0.3015 -0.3015 0.9045
vn -0.3015 -0.3015 0.9045
vn 0.3015 -0.3015 -0.9045
vn -0.3015 -0.3015 -0.9045
vn 0.7071 0.0000 0.7071
vn 0.7071 0.0000 -0.7071
vn -0.7071 0.0000 0.7071
vn -0.7071 0.0000 -0.7071
vn 0.0000 0.7071 0.7071
vn 0.0000 0.7071 -0.7071
vn 0.5774 0.5774 0.5774
vn 0.5774 0.5774 -0.5774
vn -0.5774 0.5774 0.5774
vn -0.5774 0.5774 -0.5774
vn 0.2811 0.6786 0.6786
vn -0.2811 0.6786 0.6786
vn -0.2811 0.6786 -0.6786
vn 0.2811 0.6786 -0.6786
# 22 vertex normals

vt 1.0000 0.0000 0.0000
vt 1.0000 1.0000 0.0000
vt 0.0000 1.0000 0.0000
vt 0.0000 0.0000 0.0000
# 4 texture coords

o Box001
g Box001
usemtl Material__25
s 2
f 1/1/1 2/2/2 3/3/3 4/4/4 
s 8
f 1/4/1 4/1/4 5/2/5 6/3/6 
s 16
f 4/4/4 3/1/3 7/2/7 5/3/5 
s 32
f 3/4/3 2/1/2 8/2/8 7/3/7 
s 64
f 2/4/2 1/1/1 6/2/6 8/3/8 
s off
f 5/3/5 7/2/7 9/2/8 10/3/6 
f 8/3/8 6/2/6 11/2/5 12/3/7 
f 10/3/6 9/2/8 13/2/2 14/3/1 
f 12/3/7 11/2/5 15/2/4 16/3/3 
f 10/3/6 14/3/1 17/3/4 18/3/9 
f 13/2/2 9/2/8 19/2/10 20/2/3 
f 14/3/1 13/2/2 20/2/3 17/3/4 
f 15/2/4 11/2/5 21/2/11 22/2/1 
f 12/3/7 16/3/3 23/3/2 24/3/12 
f 16/3/3 15/2/4 22/2/1 23/3/2 
f 24/3/12 23/3/2 22/2/1 21/2/11 
f 18/3/9 17/3/4 20/2/3 19/2/10 
f 6/3/6 5/2/5 25/2/13 26/3/13 
f 7/3/7 8/2/8 27/2/14 28/3/14 
f 5/3/5 10/3/6 29/3/13 25/3/13 
f 9/2/8 7/2/7 28/2/14 30/2/14 
f 11/2/5 6/2/6 26/2/13 31/2/13 
f 8/3/8 12/3/7 32/3/14 27/3/14 
f 10/3/6 18/3/9 33/3/15 29/3/13 
f 19/2/10 9/2/8 30/2/14 34/2/16 
f 21/2/11 11/2/5 31/2/13 35/2/17 
f 12/3/7 24/3/12 36/3/18 32/3/14 
f 24/3/12 21/2/11 35/2/17 36/3/18 
f 18/3/9 19/2/10 34/2/16 33/3/15 
f 28/3/14 25/2/13 29/3/13 33/3/15 34/2/16 30/2/14 
f 27/2/14 32/3/14 36/3/18 35/2/17 31/2/13 26/3/13 
f 26/3/13 25/2/13 37/2/19 38/3/20 
f 28/3/14 27/2/14 39/2/21 40/3/22 
f 25/2/13 28/3/14 40/3/22 37/2/19 
f 27/2/14 26/3/13 38/3/20 39/2/21 
f 38/3/20 37/2/19 41/2/15 42/3/17 
f 40/3/22 39/2/21 43/2/18 44/3/16 
f 37/2/19 40/3/22 44/3/16 41/2/15 
f 39/2/21 38/3/20 42/3/17 43/2/18 
f 43/2/18 42/3/17 41/2/15 44/3/16 
# 40 polygons

#
# object Box002
#

v  -19.9888 0.0000 9.7890
v  -19.9888 0.0000 -9.7890
v  19.9983 0.0000 -9.7890
v  19.9983 0.0000 9.7890
v  19.9983 90.2149 9.7890
v  -19.9888 90.2149 9.7890
v  19.9983 90.2149 -9.7890
v  -19.9888 90.2149 -9.7890
v  23.0016 90.2149 -9.7890
v  23.0016 90.2149 9.7890
v  -22.9694 90.2149 9.7890
v  -22.9694 90.2149 -9.7890
v  23.0016 42.3523 -9.7890
v  23.0016 42.3523 9.7890
v  -22.9694 42.3523 9.7890
v  -22.9694 42.3523 -9.7890
v  34.1061 42.3523 9.7890
v  34.1061 90.2149 9.7890
v  34.1061 90.2149 -9.7890
v  34.1061 42.3523 -9.7890
v  -33.9625 90.2149 9.7890
v  -33.9625 42.3523 9.7890
v  -33.9625 42.3523 -9.7890
v  -33.9625 90.2149 -9.7890
v  19.9983 102.8053 9.7890
v  -19.9888 102.8053 9.7890
v  -19.9888 102.8053 -9.7890
v  19.9983 102.8053 -9.7890
v  23.0016 102.8053 9.7890
v  23.0016 102.8053 -9.7890
v  -22.9694 102.8053 9.7890
v  -22.9694 102.8053 -9.7890
v  34.1061 102.8053 9.7890
v  34.1061 102.8053 -9.7890
v  -33.9625 102.8053 9.7890
v  -33.9625 102.8053 -9.7890
v  10.1500 102.8053 9.7890
v  -10.1404 102.8053 9.7890
v  -10.1404 102.8053 -9.7890
v  10.1500 102.8053 -9.7890
v  10.1500 122.2907 9.7890
v  -10.1404 122.2907 9.7890
v  -10.1404 122.2907 -9.7890
v  10.1500 122.2907 -9.7890
# 44 vertices

vn -0.5774 -0.5774 0.5774
vn -0.5774 -0.5774 -0.5774
vn 0.5774 -0.5774 -0.5774
vn 0.5774 -0.5774 0.5774
vn 0.3015 -0.3015 0.9045
vn -0.3015 -0.3015 0.9045
vn 0.3015 -0.3015 -0.9045
vn -0.3015 -0.3015 -0.9045
vn 0.7071 0.0000 0.7071
vn 0.7071 0.0000 -0.7071
vn -0.7071 0.0000 0.7071
vn -0.7071 0.0000 -0.7071
vn 0.0000 0.7071 0.7071
vn 0.0000 0.7071 -0.7071
vn 0.5774 0.5774 0.5774
vn 0.5774 0.5774 -0.5774
vn -0.5774 0.5774 0.5774
vn -0.5774 0.5774 -0.5774
vn 0.2811 0.6786 0.6786
vn -0.2811 0.6786 0.6786
vn -0.2811 0.6786 -0.6786
vn 0.2811 0.6786 -0.6786
# 22 vertex normals

vt 1.0000 0.0000 0.0000
vt 1.0000 1.0000 0.0000
vt 0.0000 1.0000 0.0000
vt 0.0000 0.0000 0.0000
# 4 texture coords

o Box002
g Box002
usemtl Material__26
s 2
f 45/5/23 46/6/24 47/7/25 48/8/26 
s 8
f 45/8/23 48/5/26 49/6/27 50/7/28 
s 16
f 48/8/26 47/5/25 51/6/29 49/7/27 
s 32
f 47/8/25 46/5/24 52/6/30 51/7/29 
s 64
f 46/8/24 45/5/23 50/6/28 52/7/30 
s off
f 49/7/27 51/6/29 53/6/30 54/7/28 
f 52/7/30 50/6/28 55/6/27 56/7/29 
f 54/7/28 53/6/30 57/6/24 58/7/23 
f 56/7/29 55/6/27 59/6/26 60/7/25 
f 54/7/28 58/7/23 61/7/26 62/7/31 
f 57/6/24 53/6/30 63/6/32 64/6/25 
f 58/7/23 57/6/24 64/6/25 61/7/26 
f 59/6/26 55/6/27 65/6/33 66/6/23 
f 56/7/29 60/7/25 67/7/24 68/7/34 
f 60/7/25 59/6/26 66/6/23 67/7/24 
f 68/7/34 67/7/24 66/6/23 65/6/33 
f 62/7/31 61/7/26 64/6/25 63/6/32 
f 50/7/28 49/6/27 69/6/35 70/7/35 
f 51/7/29 52/6/30 71/6/36 72/7/36 
f 49/7/27 54/7/28 73/7/35 69/7/35 
f 53/6/30 51/6/29 72/6/36 74/6/36 
f 55/6/27 50/6/28 70/6/35 75/6/35 
f 52/7/30 56/7/29 76/7/36 71/7/36 
f 54/7/28 62/7/31 77/7/37 73/7/35 
f 63/6/32 53/6/30 74/6/36 78/6/38 
f 65/6/33 55/6/27 75/6/35 79/6/39 
f 56/7/29 68/7/34 80/7/40 76/7/36 
f 68/7/34 65/6/33 79/6/39 80/7/40 
f 62/7/31 63/6/32 78/6/38 77/7/37 
f 72/7/36 69/6/35 73/7/35 77/7/37 78/6/38 74/6/36 
f 71/6/36 76/7/36 80/7/40 79/6/39 75/6/35 70/7/35 
f 70/7/35 69/6/35 81/6/41 82/7/42 
f 72/7/36 71/6/36 83/6/43 84/7/44 
f 69/6/35 72/7/36 84/7/44 81/6/41 
f 71/6/36 70/7/35 82/7/42 83/6/43 
f 82/7/42 81/6/41 85/6/37 86/7/39 
f 84/7/44 83/6/43 87/6/40 88/7/38 
f 81/6/41 84/7/44 88/7/38 85/6/37 
f 83/6/43 82/7/42 86/7/39 87/6/40 
f 87/6/40 86/7/39 85/6/37 88/7/38 
# 40 polygons

